<?xml version="1.0" encoding="UTF-8"?>
<svg width="512" height="512" viewBox="0 0 512 512" xmlns="http://www.w3.org/2000/svg">
  <rect width="512" height="512" rx="112" fill="#1a3a6b"/>
  <rect x="96" y="156" width="320" height="200" rx="18" fill="#0d2247"/>
  <rect x="106" y="166" width="300" height="180" rx="14" fill="#0a1c3a"/>
  <rect x="118" y="180" width="276" height="100" rx="8" fill="#0e2d5e"/>
  <text x="256" y="246" text-anchor="middle" font-family="-apple-system,BlinkMacSystemFont,sans-serif" font-size="48" font-weight="700" fill="#e8a020" letter-spacing="3">143026</text>
  <text x="256" y="268" text-anchor="middle" font-family="-apple-system,BlinkMacSystemFont,sans-serif" font-size="14" font-weight="600" fill="#3dd68c" letter-spacing="2">kWh</text>
  <rect x="118" y="294" width="66" height="22" rx="5" fill="#22497f"/>
  <rect x="196" y="294" width="66" height="22" rx="5" fill="#22497f"/>
  <rect x="274" y="294" width="66" height="22" rx="5" fill="#e8a020"/>
  <rect x="352" y="294" width="66" height="22" rx="5" fill="#22497f"/>
  <rect x="312" y="172" width="8" height="16" rx="2" fill="#3dd68c" opacity="0.5"/>
  <rect x="326" y="164" width="8" height="24" rx="2" fill="#3dd68c" opacity="0.75"/>
  <rect x="340" y="156" width="8" height="32" rx="2" fill="#3dd68c"/>
  <rect x="96" y="368" width="320" height="46" rx="10" fill="#22497f"/>
  <text x="116" y="398" font-family="-apple-system,BlinkMacSystemFont,sans-serif" font-size="13" font-weight="600" fill="rgba(255,255,255,0.45)" letter-spacing="1">FORBRUK</text>
  <text x="406" y="398" text-anchor="end" font-family="-apple-system,BlinkMacSystemFont,sans-serif" font-size="17" font-weight="700" fill="#e8a020">5 862 kWh</text>
</svg>
